<svg width="580" height="577" xmlns="http://www.w3.org/2000/svg" xmlns:xlink="http://www.w3.org/1999/xlink" xml:space="preserve" overflow="hidden"><defs><clipPath id="clip0"><rect x="2052" y="756" width="580" height="577"/></clipPath></defs><g clip-path="url(#clip0)" transform="translate(-2052 -756)"><path d="M2209.72 1301.24C2298.2 1346.33 2403.64 1342.6 2488.72 1291.36L2422.76 1181.6C2375.49 1210.06 2316.91 1212.14 2267.75 1187.09Z" fill="#A142F4" fill-rule="evenodd"/><path d="M2513.71 811.667C2424.16 746.798 2305.38 738.59 2207.71 790.515L2268.16 903.842C2322.42 875.002 2388.39 879.568 2438.14 915.603Z" fill="#4285F4" fill-rule="evenodd"/><path d="M238.019 64.2829C190.257 147.296 104.5 201.074 9.19193 207.78L0.249377 79.9023C53.202 76.188 100.854 46.3198 127.398 0.203543Z" fill="#34A853" fill-rule="evenodd" transform="matrix(0.0850164 0.99638 0.99638 -0.0850164 2423.34 1049.34)"/><path d="M2191.78 799.605C2109.79 848.642 2057.67 934.994 2052.72 1030.01L2180.46 1036.6C2183.21 983.82 2212.17 935.853 2257.72 908.612Z" fill="#C04F15" fill-rule="evenodd"/><path d="M2052.72 1055.13C2056.1 1150.96 2106.79 1238.83 2187.97 1289.6L2255.72 1180.88C2210.61 1152.67 2182.45 1103.84 2180.57 1050.6Z" fill="#FBBC05" fill-rule="evenodd"/><path d="M2380.05 1074.13 2630.91 1041.05 2385.03 1007.2C2352.87 1029.47 2351.21 1051.77 2380.05 1074.13Z" fill="#EA4335" fill-rule="evenodd"/><path d="M2297.16 999.505C2318.44 971.472 2358.42 965.999 2386.45 987.277 2414.48 1008.56 2419.96 1048.53 2398.68 1076.56 2377.4 1104.6 2337.43 1110.08 2309.4 1088.8 2281.36 1067.52 2275.89 1027.54 2297.16 999.505Z" fill="#EA4335" fill-rule="evenodd"/></g></svg>