<svg width="3749" height="577" xmlns="http://www.w3.org/2000/svg" xmlns:xlink="http://www.w3.org/1999/xlink" xml:space="preserve" overflow="hidden"><g transform="translate(-277 -756)"><path d="M610.997 827.713 595.747 905.85C577.1 896.624 558.719 889.747 540.605 885.219 522.547 880.69 504.882 878.426 487.61 878.426 463.908 878.426 445.429 882.139 432.173 889.564 418.946 896.962 412.332 907.242 412.332 920.406 412.332 928.787 415.252 935.355 421.094 940.109 426.964 944.805 438.997 949.376 457.196 953.82L496.246 963.44C528.824 971.681 552.723 983.607 567.945 999.217 583.166 1014.77 590.777 1034.9 590.777 1059.59 590.777 1099.67 575.583 1131.84 545.196 1156.08 514.866 1180.3 474.116 1192.41 422.948 1192.41 399.076 1192.41 375.317 1190.16 351.671 1185.66 328.08 1181.24 305.023 1174.66 282.5 1165.91L297.581 1085.58C319.43 1098.24 340.676 1107.7 361.317 1113.98 382.016 1120.28 402.39 1123.43 422.442 1123.43 444.151 1123.43 461.802 1118.97 475.394 1110.05 488.959 1101.14 495.741 1089.77 495.741 1075.96 495.741 1066.88 492.694 1059.83 486.599 1054.82 480.534 1049.76 467.208 1044.6 446.622 1039.34L407.866 1029.68C379.249 1022.59 357.948 1011.41 343.962 996.137 329.948 980.78 322.941 960.894 322.941 936.48 322.941 898.087 337.629 867.316 367.004 844.167 396.38 821.019 435.922 809.444 485.631 809.444 505.542 809.444 525.973 810.977 546.924 814.043 567.931 817.081 589.288 821.638 610.997 827.713ZM751.234 1145.15 722.883 1290.5 633.914 1290.5 708.266 908.339 797.109 908.339 788.979 948.799C802.459 932.683 816.599 920.799 831.399 913.149 846.256 905.498 862.474 901.673 880.055 901.673 911.172 901.673 935.759 911.56 953.817 931.333 971.931 951.106 980.988 978.038 980.988 1012.13 980.988 1033.42 977.829 1054.11 971.51 1074.19 965.191 1094.3 956.106 1112.61 944.255 1129.12 929.258 1149.82 912.337 1165.56 893.493 1176.33 874.677 1187.05 854.484 1192.41 832.916 1192.41 813.987 1192.41 797.895 1188.58 784.64 1180.93 771.412 1173.22 760.277 1161.3 751.234 1145.15ZM844.037 965.929C821.346 965.929 802.782 976.448 788.347 997.487 773.968 1018.47 766.778 1045.75 766.778 1079.34 766.778 1094.53 770.837 1106.45 778.953 1115.11 787.125 1123.75 798.443 1128.07 812.906 1128.07 835.12 1128.07 853.473 1117.73 867.964 1097.06 882.456 1076.38 889.702 1049.89 889.702 1017.57 889.702 1000.75 885.77 987.938 877.906 979.135 870.127 970.331 858.837 965.929 844.037 965.929ZM1318.67 1057.1 1315.76 1071.19 1108.88 1071.19C1108.88 1072.21 1108.81 1073.66 1108.67 1075.54 1108.5 1077.45 1108.42 1078.9 1108.42 1079.89 1108.42 1097.83 1113.8 1111.26 1124.55 1120.18 1135.34 1129.09 1151.5 1133.55 1173.04 1133.55 1191.63 1133.55 1211.25 1130.75 1231.89 1125.16 1252.59 1119.5 1274.28 1111.16 1296.97 1100.14L1283.37 1168.91C1261.83 1176.81 1240.4 1182.69 1219.08 1186.54 1197.77 1190.45 1176.1 1192.41 1154.08 1192.41 1110.95 1192.41 1077.64 1182.44 1054.16 1162.49 1030.74 1142.5 1019.03 1114.3 1019.03 1077.9 1019.03 1056.81 1022.76 1036.34 1030.23 1016.52 1037.76 996.657 1048.68 978.473 1063.01 961.963 1079.91 942.19 1100.16 927.212 1123.75 917.03 1147.4 906.792 1173.62 901.673 1202.4 901.673 1239.81 901.673 1269.48 911.644 1291.41 931.586 1313.38 951.5 1324.36 978.347 1324.36 1012.13 1324.36 1018.71 1323.91 1025.68 1323.01 1033.05 1322.14 1040.39 1320.69 1048.41 1318.67 1057.1ZM1235.26 1016.6C1235.74 1014.43 1236.12 1012.25 1236.4 1010.06 1236.65 1007.84 1236.78 1005.64 1236.78 1003.48 1236.78 990.287 1232.83 979.823 1224.94 972.089 1217.02 964.326 1206.31 960.444 1192.8 960.444 1175.53 960.444 1160.82 965.198 1148.69 974.705 1136.64 984.183 1127.4 998.149 1120.97 1016.6L1235.26 1016.6ZM1661.53 1057.1 1658.62 1071.19 1451.74 1071.19C1451.74 1072.21 1451.66 1073.66 1451.49 1075.54 1451.35 1077.45 1451.28 1078.9 1451.28 1079.89 1451.28 1097.83 1456.64 1111.26 1467.37 1120.18 1478.19 1129.09 1494.35 1133.55 1515.86 1133.55 1534.45 1133.55 1554.07 1130.75 1574.71 1125.16 1595.41 1119.5 1617.1 1111.16 1639.79 1100.14L1626.23 1168.91C1604.69 1176.81 1583.26 1182.69 1561.95 1186.54 1540.6 1190.45 1518.92 1192.41 1496.9 1192.41 1453.79 1192.41 1420.5 1182.44 1397.02 1162.49 1373.57 1142.5 1361.85 1114.3 1361.85 1077.9 1361.85 1056.81 1365.58 1036.34 1373.05 1016.52 1380.61 996.657 1391.55 978.473 1405.87 961.963 1422.75 942.19 1442.98 927.212 1466.57 917.03 1490.22 906.792 1516.45 901.673 1545.26 901.673 1582.64 901.673 1612.31 911.644 1634.28 931.586 1656.24 951.5 1667.22 978.347 1667.22 1012.13 1667.22 1018.71 1666.77 1025.68 1665.87 1033.05 1664.97 1040.39 1663.52 1048.41 1661.53 1057.1ZM1578.12 1016.6C1578.6 1014.43 1578.96 1012.25 1579.22 1010.06 1579.5 1007.84 1579.64 1005.64 1579.64 1003.48 1579.64 990.287 1575.68 979.823 1567.76 972.089 1559.87 964.326 1549.15 960.444 1535.62 960.444 1518.35 960.444 1503.66 965.198 1491.55 974.705 1479.51 984.183 1470.27 998.149 1463.83 1016.6L1578.12 1016.6ZM1841.75 1128.07C1864.44 1128.07 1882.89 1117.6 1897.1 1096.68 1911.39 1075.72 1918.54 1048.37 1918.54 1014.62 1918.54 999.288 1914.54 987.348 1906.53 978.797 1898.53 970.218 1887.38 965.929 1873.09 965.929 1850.73 965.929 1832.31 976.266 1817.82 996.939 1803.33 1017.61 1796.08 1044.11 1796.08 1076.43 1796.08 1093.25 1799.98 1106.06 1807.79 1114.86 1815.57 1123.66 1826.89 1128.07 1841.75 1128.07ZM1934.8 948.799 1963.4 800.5 2052.5 800.5 1977.77 1185.19 1888.59 1185.19 1896.8 1145.15C1883.27 1161.3 1869.1 1173.22 1854.3 1180.93 1839.5 1188.58 1823.28 1192.41 1805.64 1192.41 1774.58 1192.41 1749.99 1182.52 1731.88 1162.75 1713.77 1142.95 1704.71 1115.99 1704.71 1081.87 1704.71 1060.63 1707.87 1039.96 1714.19 1019.85 1720.56 999.71 1729.68 981.413 1741.53 964.958 1756.47 944.173 1773.36 928.436 1792.2 917.747 1811.08 907.031 1831.28 901.673 1852.82 901.673 1871.78 901.673 1887.86 905.498 1901.06 913.149 1914.34 920.799 1925.59 932.683 1934.8 948.799Z" stroke="#0C1324" stroke-width="9.16667" stroke-miterlimit="8" fill="#0C1324" fill-rule="evenodd"/><path d="M2801.28 1066.13C2779.26 1066.13 2762.59 1069.55 2751.27 1076.4 2740.01 1083.17 2734.38 1093.22 2734.38 1106.55 2734.38 1116.6 2737.72 1124.52 2744.4 1130.3 2751.09 1136.06 2760.24 1138.94 2771.87 1138.94 2789.99 1138.94 2805.13 1133.46 2817.29 1122.51 2829.51 1111.56 2837.68 1096.14 2841.81 1076.23L2843.79 1066.13 2801.28 1066.13ZM2939.26 1032.82 2908.46 1190.48 2820.07 1190.48 2827.48 1149.51C2813.02 1165.98 2797.7 1178.14 2781.52 1185.97 2765.4 1193.78 2747.88 1197.68 2728.98 1197.68 2702.81 1197.68 2682.01 1190.88 2666.59 1177.3 2651.2 1163.71 2643.5 1145.39 2643.5 1122.34 2643.5 1087.17 2657.12 1060.25 2684.37 1041.58 2711.64 1022.88 2750.95 1013.53 2802.29 1013.53L2854.36 1013.53 2855.37 1006.67C2855.85 1004.37 2856.12 1002.74 2856.17 1001.78 2856.29 1000.77 2856.34 999.847 2856.34 999.004 2856.34 988.168 2851.2 979.985 2840.92 974.454 2830.64 968.924 2815.36 966.159 2795.09 966.159 2776.83 966.159 2759.13 968.054 2742 971.844 2724.9 975.634 2708.37 981.318 2692.41 988.898L2705.77 921.565C2724.19 916.932 2743.07 913.423 2762.39 911.037 2781.72 908.679 2801.76 907.5 2822.51 907.5 2863.49 907.5 2893.94 914.532 2913.85 928.597 2933.74 942.633 2943.68 964.053 2943.68 992.857 2943.68 998.443 2943.31 1004.58 2942.58 1011.26 2941.85 1017.88 2940.74 1025.07 2939.26 1032.82ZM3010.33 1082.85 3042.73 914.154 3131.37 914.154 3103.48 1058C3101.49 1067.38 3099.98 1075.35 3098.97 1081.92 3098.02 1088.49 3097.54 1093.67 3097.54 1097.46 3097.54 1107.84 3100.42 1115.9 3106.18 1121.63 3111.91 1127.36 3120.12 1130.22 3130.82 1130.22 3149.08 1130.22 3164.79 1123.17 3177.97 1109.08 3191.14 1094.9 3200.2 1075.24 3205.14 1050.08L3231.85 914.154 3320.41 914.154 3266.86 1190.48 3177.76 1190.48 3185.89 1149.97C3170.78 1165.97 3154.89 1177.91 3138.24 1185.8 3121.64 1193.72 3104.13 1197.68 3085.7 1197.68 3060.48 1197.68 3040.94 1191.01 3027.1 1177.68 3013.31 1164.31 3006.41 1145.48 3006.41 1121.17 3006.41 1115.38 3006.72 1109.3 3007.34 1102.93 3008.04 1096.5 3009.04 1089.81 3010.33 1082.85ZM3547.28 1143.57C3533.13 1159.68 3518.73 1171.53 3504.1 1179.11 3489.44 1186.69 3473.47 1190.48 3456.2 1190.48 3424.93 1190.48 3400.22 1180.4 3382.05 1160.24 3363.87 1140.09 3354.79 1112.59 3354.79 1077.75 3354.79 1059.17 3357.95 1040.52 3364.27 1021.83 3370.59 1003.13 3379.67 985.572 3391.52 969.148 3405.99 949.273 3422.6 934.113 3441.36 923.67 3460.16 913.199 3480.32 907.963 3501.86 907.963 3521.3 907.963 3537.63 911.753 3550.86 919.333 3564.12 926.856 3575.28 938.788 3584.36 955.126L3591.77 914.154 3680.88 914.154 3634.2 1154.22C3624.65 1203.71 3604.24 1240.31 3572.98 1264 3541.69 1287.67 3498.24 1299.5 3442.63 1299.5 3425.5 1299.5 3408.98 1298.19 3393.08 1295.58 3377.24 1292.94 3361.58 1288.92 3346.11 1283.5L3359.21 1214.65C3373.17 1223.55 3387.16 1230.17 3401.17 1234.52 3415.16 1238.9 3429.48 1241.09 3444.15 1241.09 3473.41 1241.09 3495.9 1234.83 3511.6 1222.31 3527.33 1209.82 3537.9 1189.92 3543.32 1162.6L3547.28 1143.57ZM3522.63 971.633C3500.9 971.633 3482.81 981.416 3468.37 1000.98 3453.99 1020.58 3446.8 1045.16 3446.8 1074.72 3446.8 1091.51 3450.68 1104.29 3458.43 1113.08 3466.18 1121.89 3477.44 1126.3 3492.22 1126.3 3513.82 1126.3 3531.86 1116.56 3546.35 1097.08 3560.82 1077.6 3568.05 1053.3 3568.05 1024.19 3568.05 1007.09 3564.19 994.064 3556.47 985.108 3548.71 976.125 3537.44 971.633 3522.63 971.633ZM4015.81 1062.63 4012.91 1076.7 3806 1076.7C3806 1077.71 3805.93 1079.15 3805.79 1081.03 3805.62 1082.94 3805.54 1084.39 3805.54 1085.37 3805.54 1103.28 3810.92 1116.69 3821.68 1125.59 3832.46 1134.49 3848.63 1138.94 3870.17 1138.94 3888.76 1138.94 3908.38 1136.14 3929.02 1130.56 3949.72 1124.91 3971.42 1116.59 3994.12 1105.58L3980.51 1174.22C3958.96 1182.11 3937.53 1187.98 3916.22 1191.83 3894.9 1195.73 3873.23 1197.68 3851.21 1197.68 3808.07 1197.68 3774.76 1187.73 3751.28 1167.82 3727.85 1147.86 3716.14 1119.72 3716.14 1083.39 3716.14 1062.34 3719.88 1041.91 3727.35 1022.12 3734.87 1002.3 3745.8 984.154 3760.12 967.675 3777.03 947.939 3797.28 932.99 3820.88 922.828 3844.52 912.609 3870.74 907.5 3899.53 907.5 3936.94 907.5 3966.62 917.452 3988.55 937.356 4010.52 957.232 4021.5 984.028 4021.5 1017.74 4021.5 1024.31 4021.05 1031.27 4020.15 1038.63 4019.28 1045.96 4017.83 1053.96 4015.81 1062.63ZM3932.39 1022.21C3932.87 1020.05 3933.25 1017.87 3933.53 1015.68 3933.79 1013.46 3933.91 1011.27 3933.91 1009.11 3933.91 995.945 3929.96 985.501 3922.07 977.781 3914.15 970.033 3903.44 966.159 3889.93 966.159 3872.65 966.159 3857.95 970.903 3845.82 980.392 3833.77 989.853 3824.53 1003.79 3818.09 1022.21L3932.39 1022.21Z" stroke="#0C1324" stroke-width="9.16667" stroke-miterlimit="8" fill="#0C1324" fill-rule="evenodd"/><path d="M2209.72 1301.24C2298.2 1346.33 2403.64 1342.6 2488.72 1291.36L2422.76 1181.6C2375.49 1210.06 2316.91 1212.14 2267.75 1187.09Z" fill="#A142F4" fill-rule="evenodd"/><path d="M2513.71 811.667C2424.16 746.798 2305.38 738.59 2207.71 790.515L2268.16 903.842C2322.42 875.002 2388.39 879.568 2438.14 915.603Z" fill="#4285F4" fill-rule="evenodd"/><path d="M238.019 64.2829C190.257 147.296 104.5 201.074 9.19193 207.78L0.249377 79.9023C53.202 76.188 100.854 46.3198 127.398 0.203543Z" fill="#34A853" fill-rule="evenodd" transform="matrix(0.0850164 0.99638 0.99638 -0.0850164 2423.34 1049.34)"/><path d="M2191.78 799.605C2109.79 848.642 2057.67 934.994 2052.72 1030.01L2180.46 1036.6C2183.21 983.82 2212.17 935.853 2257.72 908.612Z" fill="#C04F15" fill-rule="evenodd"/><path d="M2052.72 1055.13C2056.1 1150.96 2106.79 1238.83 2187.97 1289.6L2255.72 1180.88C2210.61 1152.67 2182.45 1103.84 2180.57 1050.6Z" fill="#FBBC05" fill-rule="evenodd"/><path d="M2380.05 1074.13 2630.91 1041.05 2385.03 1007.2C2352.87 1029.47 2351.21 1051.77 2380.05 1074.13Z" fill="#EA4335" fill-rule="evenodd"/><path d="M2297.16 999.505C2318.44 971.472 2358.42 965.999 2386.45 987.277 2414.48 1008.56 2419.96 1048.53 2398.68 1076.56 2377.4 1104.6 2337.43 1110.08 2309.4 1088.8 2281.36 1067.52 2275.89 1027.54 2297.16 999.505Z" fill="#EA4335" fill-rule="evenodd"/></g></svg>